<svg xmlns="http://www.w3.org/2000/svg" width="100" height="99" fill="none"><g fill="#fff" clip-path="url(#a)"><path d="M44.41 20.785c13-8.26 25-11.01 35.69-10.5-.97-.74-1.96-1.43-2.98-2.1-11.21.11-22.5 3.74-33.79 10.91-23.61 15.01-35.49 17.8-41.25 17.57-.18.65-.34 1.32-.5 1.98.38.03.77.04 1.18.04 6.95 0 19.41-3.76 41.65-17.9zm19.41-18.7c-1.24-.36-2.49-.68-3.77-.94-5.65 1.92-11.26 4.72-16.82 8.43-19.92 13.16-31.43 17.55-37.98 18.62-.34.71-.67 1.43-.98 2.16 7.13-.8 19.3-5.4 40.07-19.12 6.43-4.29 12.94-7.34 19.48-9.15zm-19.26 37.8c.87-.5 2.15-1.21 3.76-2v-2.3c-1.57.79-3.15 1.64-4.77 2.57C17.4 53.315 5.48 54.015.39 52.725c.04.69.09 1.39.16 2.07 1.09.23 2.34.37 3.8.37 7.32 0 19.62-3.36 40.21-15.29v.01zm-.08-9.55c1.29-.79 2.57-1.51 3.84-2.19v-2.27a87.34 87.34 0 0 0-4.88 2.75C17.57 44.345 5.71 45.645.57 44.635c-.07.66-.12 1.33-.16 2 .91.17 1.93.27 3.11.27 7.15 0 19.55-3.56 40.96-16.57zm6.84 3.81v2.34c10.14-4.44 28.36-9.76 46.12-1.54-.23-.75-.48-1.49-.75-2.22-11.46-5.14-26.69-7.02-45.37 1.42zm0 9.78v2.17c16.95-7.61 32.36-7.71 45.86-.24.86.47 1.67.97 2.47 1.48-.04-.83-.1-1.64-.18-2.46-.43-.26-.86-.52-1.31-.77-16.44-9.1-33.53-5.92-46.83-.18h-.01zm0-19.54v2.22c15.54-7.52 29.08-7.46 40.2-4.1-.59-.9-1.21-1.78-1.86-2.64-10.82-2.73-23.71-2.35-38.34 4.52zm-6.69 25.05c1.24-.68 2.47-1.33 3.69-1.93v-2.21c-1.62.78-3.18 1.58-4.66 2.39-11.18 6.17-30.85 15.72-42.05 13.51.17.71.35 1.41.54 2.1.92.13 1.94.2 3.06.2 7.46 0 19.64-3.16 39.41-14.07l.01.01zM46.4.275c-1.46.11-2.91.27-4.34.5-13.8 9.47-23.45 14.55-30.16 17.16-.8.95-1.55 1.93-2.28 2.94 7.38-2.38 18.34-7.91 34.63-19.17.71-.49 1.43-.96 2.15-1.42v-.01zm4.92 63.12v2.16c14.49-5.95 27.07-6.78 37.47-2.45 2.99 1.24 5.52 2.81 7.65 4.47.26-.67.49-1.34.72-2.03-8.61-6.51-23.1-11.27-45.84-2.16v.01zm0 9.75v2.14c14.97-5.87 27.38-6.49 36.96-1.83 1.51.73 2.84 1.57 4.05 2.44.36-.58.7-1.16 1.03-1.76-7.73-5.54-20.8-9.11-42.05-.99h.01zm-3-15.96v-2.21c-1.49.68-3 1.42-4.54 2.23-20.34 10.66-32.29 13.13-39.28 12.63.3.68.61 1.36.94 2.03 7.53.19 19.69-2.63 39.26-12.88 1.22-.64 2.42-1.23 3.61-1.79l.01-.01zm-4.2 28.6c-7.41 3.27-13.72 5.52-19.1 7.01.81.47 1.64.92 2.48 1.35 5.05-1.5 10.82-3.62 17.43-6.53 18.05-7.96 32.1-9.38 41.78-4.26.47-.51.92-1.04 1.37-1.57-7.97-4.42-21.45-5.92-43.96 4z"/><path d="M51.32 53.655v2.17c13.87-5.96 26.42-7.05 37.36-3.22 4.05 1.42 7.47 3.38 10.34 5.5.12-.71.22-1.43.31-2.15-9.74-6.83-25.35-11.74-48-2.3h-.01zm-3 13.2v-2.19c-1.45.64-2.92 1.32-4.43 2.07-16.37 8.12-27.33 11.07-34.66 11.52.44.63.89 1.25 1.36 1.86 7.63-.72 18.55-3.83 34.19-11.59 1.19-.59 2.37-1.14 3.54-1.67zm-4.09 28.46c-2.36.98-4.61 1.85-6.76 2.63 1.18.31 2.38.56 3.59.78 1.28-.49 2.58-1.01 3.93-1.56 13.66-5.64 24.92-7.78 33.16-6.36.74-.51 1.47-1.05 2.18-1.6-8.79-2.21-20.88-.18-36.1 6.11zm4.09-18.8v-2.17c-1.41.59-2.84 1.22-4.32 1.91-12.02 5.63-21.14 8.53-28.06 9.77.6.57 1.22 1.12 1.84 1.65 6.93-1.4 15.77-4.32 27.06-9.61 1.17-.55 2.33-1.06 3.47-1.55h.01z"/></g><defs><clipPath id="a"><path fill="#fff" d="M.39.275h99.26v98.45H.39z"/></clipPath></defs></svg>